<?xml version="1.0" encoding="utf-8"?>
<!-- Generator: Adobe Illustrator 16.0.4, SVG Export Plug-In . SVG Version: 6.00 Build 0)  -->
<!DOCTYPE svg PUBLIC "-//W3C//DTD SVG 1.1//EN" "http://www.w3.org/Graphics/SVG/1.1/DTD/svg11.dtd">
<svg version="1.1" id="Layer_1" xmlns="http://www.w3.org/2000/svg" xmlns:xlink="http://www.w3.org/1999/xlink" x="0px" y="0px"
	 width="517px" height="365px" viewBox="0 0 517 365" enable-background="new 0 0 517 365" xml:space="preserve">
<g>
	<path fill="#FFFFFF" stroke="#F1F2F2" stroke-miterlimit="10" d="M9.809,12.248V577h497.163V12.248H9.809z M49.266,563.662
		c-6.071,0-10.993-4.922-10.993-10.992c0-6.072,4.922-10.994,10.993-10.994c6.07,0,10.992,4.922,10.992,10.994
		C60.258,558.74,55.336,563.662,49.266,563.662z M49.266,345.225c-6.071,0-10.993-4.922-10.993-10.992
		c0-6.072,4.922-10.994,10.993-10.994c6.07,0,10.992,4.922,10.992,10.994C60.258,340.303,55.336,345.225,49.266,345.225z
		 M49.265,126.787c-6.071,0-10.993-4.922-10.993-10.993c0-6.071,4.922-10.993,10.993-10.993c6.071,0,10.993,4.922,10.993,10.993
		C60.258,121.865,55.336,126.787,49.265,126.787z"/>
</g>
<line opacity="0.2" fill="none" stroke="#BE1E2D" stroke-miterlimit="10" x1="91" y1="11.792" x2="91" y2="577.242"/>
<line opacity="0.2" fill="none" stroke="#00AEEF" stroke-miterlimit="10" x1="506.972" y1="76.078" x2="9.809" y2="76.078"/>
<line opacity="0.2" fill="none" stroke="#00AEEF" stroke-miterlimit="10" x1="506.972" y1="95.936" x2="9.809" y2="95.936"/>
<line opacity="0.2" fill="none" stroke="#00AEEF" stroke-miterlimit="10" x1="38.273" y1="115.794" x2="9.809" y2="115.794"/>
<line opacity="0.2" fill="none" stroke="#00AEEF" stroke-miterlimit="10" x1="506.972" y1="115.794" x2="60.258" y2="115.794"/>
<line opacity="0.2" fill="none" stroke="#00AEEF" stroke-miterlimit="10" x1="506.972" y1="135.652" x2="9.809" y2="135.652"/>
<line opacity="0.2" fill="none" stroke="#00AEEF" stroke-miterlimit="10" x1="506.972" y1="155.51" x2="9.809" y2="155.51"/>
<line opacity="0.2" fill="none" stroke="#00AEEF" stroke-miterlimit="10" x1="506.972" y1="175.368" x2="9.809" y2="175.368"/>
<line opacity="0.2" fill="none" stroke="#00AEEF" stroke-miterlimit="10" x1="506.972" y1="195.226" x2="9.809" y2="195.226"/>
<line opacity="0.2" fill="none" stroke="#00AEEF" stroke-miterlimit="10" x1="506.972" y1="215.084" x2="9.809" y2="215.084"/>
<line opacity="0.2" fill="none" stroke="#00AEEF" stroke-miterlimit="10" x1="506.972" y1="234.941" x2="9.809" y2="234.941"/>
<line opacity="0.2" fill="none" stroke="#00AEEF" stroke-miterlimit="10" x1="506.972" y1="254.799" x2="9.809" y2="254.799"/>
<line opacity="0.2" fill="none" stroke="#00AEEF" stroke-miterlimit="10" x1="506.972" y1="274.657" x2="9.809" y2="274.657"/>
<line opacity="0.2" fill="none" stroke="#00AEEF" stroke-miterlimit="10" x1="506.972" y1="294.516" x2="9.809" y2="294.516"/>
<line opacity="0.2" fill="none" stroke="#00AEEF" stroke-miterlimit="10" x1="506.972" y1="314.373" x2="9.809" y2="314.373"/>
<line opacity="0.2" fill="none" stroke="#00AEEF" stroke-miterlimit="10" x1="38.273" y1="334.23" x2="9.809" y2="334.23"/>
<line opacity="0.2" fill="none" stroke="#00AEEF" stroke-miterlimit="10" x1="506.972" y1="334.23" x2="60.258" y2="334.23"/>
<line opacity="0.2" fill="none" stroke="#00AEEF" stroke-miterlimit="10" x1="506.972" y1="354.089" x2="9.809" y2="354.089"/>
<line opacity="0.2" fill="none" stroke="#00AEEF" stroke-miterlimit="10" x1="506.972" y1="373.947" x2="9.809" y2="373.947"/>
<line opacity="0.2" fill="none" stroke="#00AEEF" stroke-miterlimit="10" x1="506.972" y1="393.805" x2="9.809" y2="393.805"/>
<line opacity="0.2" fill="none" stroke="#00AEEF" stroke-miterlimit="10" x1="506.972" y1="413.662" x2="9.809" y2="413.662"/>
<line opacity="0.2" fill="none" stroke="#00AEEF" stroke-miterlimit="10" x1="506.972" y1="433.521" x2="9.809" y2="433.521"/>
<line opacity="0.2" fill="none" stroke="#00AEEF" stroke-miterlimit="10" x1="506.972" y1="453.379" x2="9.809" y2="453.379"/>
<line opacity="0.2" fill="none" stroke="#00AEEF" stroke-miterlimit="10" x1="506.972" y1="473.236" x2="9.809" y2="473.236"/>
<line opacity="0.2" fill="none" stroke="#00AEEF" stroke-miterlimit="10" x1="506.972" y1="493.094" x2="9.809" y2="493.094"/>
<line opacity="0.2" fill="none" stroke="#00AEEF" stroke-miterlimit="10" x1="506.972" y1="512.952" x2="9.809" y2="512.952"/>
<line opacity="0.2" fill="none" stroke="#00AEEF" stroke-miterlimit="10" x1="506.972" y1="532.811" x2="9.809" y2="532.811"/>
<line opacity="0.2" fill="none" stroke="#00AEEF" stroke-miterlimit="10" x1="38.273" y1="552.668" x2="9.809" y2="552.668"/>
<line opacity="0.2" fill="none" stroke="#00AEEF" stroke-miterlimit="10" x1="506.972" y1="552.668" x2="60.258" y2="552.668"/>
</svg>
